<?xml version="1.0" encoding="utf-8"?>
<!-- Generator: Adobe Illustrator 14.0.0, SVG Export Plug-In . SVG Version: 6.00 Build 43363)  -->
<!DOCTYPE svg PUBLIC "-//W3C//DTD SVG 1.1//EN" "http://www.w3.org/Graphics/SVG/1.1/DTD/svg11.dtd">
<svg version="1.1" xmlns="http://www.w3.org/2000/svg" xmlns:xlink="http://www.w3.org/1999/xlink" x="0px" y="0px" width="612px"
	 height="792px" viewBox="0 0 612 792" enable-background="new 0 0 612 792" xml:space="preserve">
<g id="Layer_1">
	<defs>
		<path id="SVGID_1_" d="M377.974,387.61c1.688-7.244,1.639-14.532,0.513-21.226l-2.5-8.424c-3.3-7.792-9.953-14.688-19.692-20.759
			l-6.163-3.886c-1.005-0.581-2.011-1.162-3.017-1.743c-1.051,0.039-2.464-1.334-3.652-1.836c-4.838-2.543-9.429-4.288-13.841-5.373
			l-7.47-1.244c-8.617-0.74-16.634,0.963-24.589,4.002l-9.459,4.203c-7.029,3.529-27.275,19.33-27.275,19.33
			c-3.225,3.118-12.82,14.267-19.073,26.483c-5.78,11.292-8.364,23.701-8.445,26.662c0,0,1.18,13.516,1.706,15.721
			c0.488,1.275,3.902,11.707,6.004,15.412l4.579,6.846c2.854,3.658,6.3,7.158,10.432,10.475l5.186,3.818
			c2.302,1.553,15.916,8.406,18.971,9.545l9.391,2.916c12.41,3.047,23.914,2.705,34.83,0.162c1.274-0.488,2.587-0.84,3.935-1.053
			c2.35-0.887,16.409-5.797,16.409-5.797c6.449-2.545,12.698-5.844,18.297-11.566c0.521-0.9,1.041-1.801,1.562-2.701
			c5.219-8.35-5.967-14.814-14.211-15.699c-7.017-0.75-12.422,2.789-18.81,5.207c-10.051,3.801-20.605,5.334-32.585,3.619
			c-17.483-2.504-33.82-13.588-37.725-28.734c-0.486-1.275-0.838-2.586-1.052-3.936c-1.371-7.539-1.2-15.49,3.426-24.631
			c0.774-2.14,2.736-5.533,4.204-7.273c9.512-13.998,22.587-20.092,35.185-23.462c12.637-3.38,27.12-3.96,42.46,3.753
			c0.631-0.271,1.629,0.838,2.406,1.112c0.415,0.241,0.831,0.479,1.247,0.721c0.625,0.536,2.086,0.849,2.165,1.529
			c4.202,1.863,4.169,4.858,5.351,7.528c0.43,1.057,0.722,2.149,0.878,3.279c3.236,9.806-2.585,21.734-11.218,28.999
			c-8.469,7.117-18.554,13.555-28.864,9.652c-0.693,0.061-2.615-1.051-2.909-1.682c-6.821-5.201-9.176-11.6-7.556-19.06
			c6.056,1.952,6.861,9.949,13.247,12.093c5.146,1.727,9.82-1.625,13.638-6.811c0.521-0.9,1.041-1.801,1.561-2.701
			c5.399-10.52,1.151-15.62-7.261-22.447c-1.316-0.76-2.633-1.521-3.948-2.281c-16.931-5.939-29.716-7-40.224,11.079
			c-0.92,1.593-1.841,3.186-2.762,4.78c-7.667,11.426-2.167,19.895,3.584,27.85c3.592,4.975,7.946,11.27,14.363,14.955
			c13.168,7.555,27.718,4.043,38.011,0.902c6.629-2.021,13.512-4.814,19.786-8.93l6.198-4.73c2.266-2.006,4.396-4.236,6.326-6.75
			c2.599-3.385,4.584-6.924,6.08-10.527L377.974,387.61z"/>
	</defs>
	<clipPath id="SVGID_2_">
		<use xlink:href="#SVGID_1_"  overflow="visible"/>
	</clipPath>
	<rect x="230.333" y="320.851" clip-path="url(#SVGID_2_)" fill="#FED20B" width="152.333" height="152.675"/>
	<g clip-path="url(#SVGID_2_)">
		<g>
			<path fill="#00AC4E" d="M296.062,322.502c-4.513,1.723-9.016,3.675-13.536,5.805c-1.285,0.606-2.573,1.281-3.859,1.927
				l27.568,21.175L296.062,322.502z"/>
			<path fill="#00AC4E" d="M243.319,370.516c-2.662,4.313-5.038,8.747-7.028,13.244l27.364-0.093L243.319,370.516z"/>
			<path fill="#00AC4E" d="M238.6,430.916c2.831,4.991,6.073,9.872,9.785,14.629l16.649-27.212L238.6,430.916z"/>
			<path fill="#00AC4E" d="M313.817,472.849c6.245-0.669,12.213-1.65,17.907-2.942l-13.745-28.696L313.817,472.849z"/>
			<path fill="#00AC4E" d="M355.504,424.725c4.128-2.708,8.113-5.727,11.896-9.08l-21.398-15.357L355.504,424.725z"/>
			<path fill="#00AC4E" d="M378.415,364.081c-0.062-0.373-0.112-0.753-0.179-1.125c-0.728-1.793-1.224-3.649-1.489-5.567
				c-0.649-2.593-1.523-5.126-2.577-7.611l-22.46,11.698L378.415,364.081z"/>
			<path fill="#00AC4E" d="M356.701,336.926c-0.736-0.459-1.454-0.925-2.208-1.381c-1.861-1.463-5.585-2.429-6.227-4.218
				c-1.775-1.026-3.55-2.052-5.327-3.078l-1.605,29.689L356.701,336.926z"/>
			<path fill="#00AC4E" d="M270.14,342.494c-4.052,3.286-7.945,6.69-11.588,10.188c-0.182,0.175-0.364,0.363-0.545,0.539
				l25.661,13.484L270.14,342.494z"/>
			<path fill="#00AC4E" d="M233.73,398.127c-0.134,4.876,0.133,9.662,0.751,14.379l23.525-10.665L233.73,398.127z"/>
			<path fill="#00AC4E" d="M265.034,459.46c5.087,2.872,10.448,5.618,16.117,8.226l7.489-30.241L265.034,459.46z"/>
			<path fill="#00AC4E" d="M357.18,379.682l20.992,13.78c1.879-4.524,3.334-9.103,4.404-13.693L357.18,379.682z"/>
			<path fill="#00AC4E" d="M333.608,325.217c-4.986-1.227-9.855-2.025-14.63-2.436l3.45,25.881L333.608,325.217z"/>
			<path fill="#00AC4E" d="M329.237,430.938c4.402-0.746,8.8-1.807,13.149-3.215l-12.171-20.481L329.237,430.938z"/>
			<path fill="#00AC4E" d="M286.474,418.129c4.048,4.149,8.427,8.062,13.143,11.665l12.882-28.118L286.474,418.129z"/>
		</g>
	</g>
</g>
<g id="Layer_2">
	<g>
		<path fill="#FED20B" d="M429.88,380.641c8.5-0.891,21.01-3.271,20.64,5.76c0,1.039,0,2.08,0,3.119
			c-0.609,5.931-6.84,6.681-12.239,8.16c-10.271,2.82-22.561,5.471-33.601,6.24c-0.8,0-1.6,0-2.399,0
			c-4.9-1.061-13.03-3.66-12.721-9.359c0.21-3.851,5.99-6.17,10.32-7.681C409.01,383.689,419.51,381.721,429.88,380.641z"/>
		<path fill="#FED20B" d="M439.119,463.451c2.771,3.211,0.561,12.551-3.359,13.439c-2.5,0.57-5.891-1.189-7.92-2.16
			c-11.851-5.639-21.091-10.92-32.4-18c-3.6-2.25-9.88-5.189-10.561-9.359c-0.8-4.891,2.601-9.32,6.961-9.84
			c4.75-0.57,11,1.779,14.64,3.6c4.31,2.16,7.88,4.721,11.04,6.961c8.08,5.729,14.72,10.059,21.12,14.879
			C438.879,463.15,438.93,463.23,439.119,463.451z"/>
		<path fill="#FED20B" d="M412.158,304.966c4.66-0.03,9.301,4.4,8.641,9.36c-0.37,2.77-3.66,5.5-6.24,7.92
			c-7.83,7.34-17.55,15.77-29.04,18c-0.96,0-1.92,0-2.88,0c-3.69-0.78-7.01-2.26-7.44-5.76c-0.529-4.29,4.55-8.13,6.721-10.08
			c6.01-5.4,12.52-9.19,19.439-13.68C404.429,308.727,408.198,304.986,412.158,304.966z"/>
		<path fill="#FED20B" d="M385.719,512.803c1.12,2.49,2.71,5.51,2.64,7.68c-0.14,4.23-4.729,8.16-9.359,7.92
			c-3.79-0.199-4.99-2.619-7.681-4.799c-0.859-1.061-1.819-2.02-2.88-2.881c-9.66-10.34-17.18-22.82-21.359-38.639
			c0-1.041,0-2.08,0-3.121c0.189-3.189,3.68-7.15,7.199-7.68c6.08-0.91,10.561,3.83,13.44,7.439
			C375.299,488.213,380.398,500.963,385.719,512.803z"/>
		<path fill="#FED20B" d="M331.72,252.587c5.75,1.13,8.641,5.12,8.16,12.48c-0.55,0.33-0.09,1.67-0.24,2.4
			c-0.88,11.11-2.38,27.75-6.72,37.2c-1.63,3.55-4.77,8.18-10.32,7.2c-4.58-0.81-6.14-5.68-6.479-11.28c0-2.32,0-4.64,0-6.96
			c0.11-7.38,1.41-16.92,3.36-24c1.96-7.09,4-14.68,10.079-17.04C330.28,252.587,331,252.587,331.72,252.587z"/>
		<path fill="#FED20B" d="M320.44,510.959c-0.551,0.57-0.091,2.15-0.24,3.121c-1.09,10.51-1.75,21.449-9.36,25.439
			c-0.72,0-1.439,0-2.16,0c-6.03-3.25-6.58-11.98-7.439-20.4c-0.16-1.279,0.32-3.199-0.24-4.08c0-0.639,0-1.279,0-1.92
			c0.56-1.199,0.08-3.439,0.24-5.039c0.32-5.551,0.55-10.391,1.68-15.84c0.81-3.92,2.3-10.9,6.24-11.281
			c5.14-0.5,8.07,6.67,9.359,11.281C320.19,498.199,320.37,504.139,320.44,510.959z"/>
		<path fill="#FED20B" d="M270.76,479.039c0,1.441,0,2.881,0,4.32c-2.21,13.23-8.96,27.211-17.76,36.48
			c-2.48,2.619-6.9,7.779-11.76,5.76c-1.66-0.689-2.18-2.721-2.64-5.041c0-0.959,0-1.92,0-2.879
			c2.34-16.061,8.99-27.811,17.04-38.16c1.14-0.939,2.18-1.98,3.12-3.119C261.72,472.43,270.96,471.93,270.76,479.039z"/>
		<path fill="#FED20B" d="M271.463,308.131c1.09,4.51,3.42,11.66-2.16,12.72c-0.8,0-1.6,0-2.4,0c-3.16-0.28-4.51-2.37-6.48-3.84
			c-1.1-1.3-2.3-2.5-3.6-3.6c-9.77-9-20.91-30.26-11.52-48c4.9,0.72,7.78,5.25,10.56,9.12
			C262.573,283.891,268.223,294.73,271.463,308.131z"/>
		<path fill="#FED20B" d="M238.702,348.96c1.01,4.65-2.04,7.6-6,7.92c-7.42,0.6-16.07-4.45-21.12-7.44
			c-6.45-3.82-11.84-7.82-16.56-12c-0.86-1.06-1.82-2.02-2.88-2.88c-2.66-3.83-7.33-6.91-6.48-13.44
			c5.91-1.07,11.56,1.27,16.56,3.12c9.73,3.59,18.52,7.91,26.88,13.92C232.882,340.87,237.692,344.28,238.702,348.96z"/>
		<path fill="#FED20B" d="M227.8,446.16c0.77,3.82-2.69,8.029-4.8,10.32c-4.8,5.199-11.13,9.158-17.52,12.238
			c-3.8,1.84-17.07,6.051-18-0.719c-0.55-3.961,2.94-5.52,4.32-8.16c0.9-0.701,1.7-1.5,2.4-2.4c4.33-3.471,8.51-6.99,14.16-10.08
			C211.04,445.9,226.26,438.49,227.8,446.16z"/>
		<path fill="#FED20B" d="M221.32,394.32c0.52,8.92-15.11,10.1-23.52,10.799c-2.88,0-5.76,0-8.64,0
			c-10.71-1.129-21.9-1.779-26.16-9.359c0-0.56,0-1.119,0-1.68c2.95-8.01,12.93-8.99,22.8-10.08c0.97-0.15,2.55,0.311,3.12-0.24
			c1.2,0,2.4,0,3.6,0c0.65,0.551,2.31,0.09,3.36,0.24c5.57,0.471,10.49,0.77,15.6,2.4C215.32,387.62,221.06,389.95,221.32,394.32z"
			/>
	</g>
	<g>
		<g>
			<path fill="#FED20B" d="M333.028,392.116c2.183-0.128,3.756-0.558,5.918,0.41c1.005,0.45,2.024,0.45,3.098,0.344
				c2.333-0.23,4.013-1.582,5.824-2.912c0.731-0.537-0.647-0.599-0.896-0.575c-0.906,0.086-1.852,0.366-2.59,0.908
				c-0.909,0.667-1.163,1.221-2.496,0.624c-0.634-0.284-1.299-0.621-2-0.675c-1.753-0.135-3.423,0.291-5.164,0.393
				C333.75,390.69,330.482,392.266,333.028,392.116L333.028,392.116z"/>
		</g>
	</g>
	<g>
		<g>
			<path fill="#FED20B" d="M341.068,392.643c1.221,1.553,2.961,2.586,4.965,2.49c0.834-0.04,1.951-0.342,2.588-0.915
				c0.665-0.598-0.591-0.616-0.904-0.601c0.529-0.025-0.124-0.081-0.285-0.144c-0.336-0.132-0.649-0.322-0.953-0.513
				c-0.569-0.359-1.13-0.822-1.547-1.353c-0.415-0.528-1.558-0.199-2.086-0.058C342.701,391.588,340.744,392.23,341.068,392.643
				L341.068,392.643z"/>
		</g>
	</g>
</g>
</svg>
