<?xml version="1.0" encoding="utf-8"?>
<!-- Generator: Adobe Illustrator 14.0.0, SVG Export Plug-In . SVG Version: 6.00 Build 43363)  -->
<!DOCTYPE svg PUBLIC "-//W3C//DTD SVG 1.1//EN" "http://www.w3.org/Graphics/SVG/1.1/DTD/svg11.dtd">
<svg version="1.1" id="Layer_1" xmlns="http://www.w3.org/2000/svg" xmlns:xlink="http://www.w3.org/1999/xlink" x="0px" y="0px"
	 width="660px" height="820px" viewBox="0 0 660 820" enable-background="new 0 0 660 820" xml:space="preserve">
<g>
	<g id="Layer_1_1_">
		<g>
			<g>
				<defs>
					<path id="SVGID_1_" d="M478.822,315.801c3.57-15.324,3.469-30.743,1.086-44.906l-5.29-17.822
						c-6.979-16.486-21.058-31.078-41.661-43.92l-13.039-8.224c-2.127-1.229-4.256-2.459-6.381-3.687
						c-2.227,0.083-5.217-2.821-7.729-3.884c-10.235-5.38-19.95-9.074-29.282-11.367l-15.806-2.633
						c-18.229-1.566-35.191,2.037-52.021,8.467l-20.013,8.893c-14.873,7.466-57.707,40.896-57.707,40.896
						c-6.823,6.595-27.124,30.184-40.354,56.028c-12.229,23.893-17.695,50.145-17.865,56.409c0,0,2.496,28.597,3.606,33.262
						c1.033,2.697,8.256,24.769,12.703,32.607l9.689,14.484c6.038,7.736,13.327,15.145,22.072,22.162l10.97,8.079
						c4.873,3.284,33.674,17.782,40.137,20.191l19.871,6.171c26.254,6.447,50.593,5.722,73.689,0.342
						c2.695-1.032,5.475-1.777,8.325-2.229c4.975-1.875,34.717-12.263,34.717-12.263c13.644-5.388,26.866-12.365,38.71-24.472
						c1.104-1.903,2.203-3.812,3.307-5.713c11.044-17.669-12.625-31.345-30.065-33.215c-14.85-1.587-26.28,5.898-39.798,11.015
						c-21.265,8.042-43.594,11.285-68.94,7.656c-36.988-5.296-71.554-28.748-79.814-60.792c-1.028-2.698-1.772-5.472-2.227-8.326
						c-2.902-15.952-2.537-32.774,7.248-52.115c1.642-4.525,5.79-11.704,8.896-15.385c20.124-29.617,47.786-42.509,74.439-49.64
						c26.736-7.15,57.378-8.376,89.834,7.941c1.333-0.573,3.444,1.772,5.09,2.353c0.876,0.508,1.76,1.014,2.641,1.525
						c1.322,1.135,4.409,1.796,4.579,3.235c8.892,3.944,8.82,10.278,11.319,15.926c0.91,2.238,1.532,4.547,1.857,6.938
						c6.848,20.748-5.469,45.983-23.733,61.354c-17.917,15.059-39.255,28.677-61.067,20.422c-1.465,0.127-5.53-2.227-6.154-3.56
						c-14.43-11.006-19.413-24.541-15.985-40.325c12.812,4.129,14.516,21.047,28.028,25.585c10.889,3.655,20.773-3.438,28.852-14.41
						c1.104-1.904,2.203-3.809,3.303-5.714c11.423-22.258,2.437-33.048-15.359-47.492c-2.782-1.608-5.573-3.22-8.354-4.827
						c-35.82-12.565-62.87-14.811-85.1,23.44c-1.946,3.369-3.898,6.741-5.845,10.113c-16.221,24.174-4.584,42.091,7.583,58.922
						c7.6,10.526,16.811,23.846,30.388,31.641c27.858,15.983,58.643,8.553,80.42,1.908c14.025-4.276,28.588-10.186,41.861-18.893
						l13.112-10.007c4.794-4.244,9.301-8.964,13.384-14.281c5.5-7.161,9.699-14.649,12.866-22.274L478.822,315.801z"/>
				</defs>
				<clipPath id="SVGID_2_">
					<use xlink:href="#SVGID_1_"  overflow="visible"/>
				</clipPath>
				<rect x="166.457" y="174.561" clip-path="url(#SVGID_2_)" fill="#FED20D" width="322.294" height="323.017"/>
			</g>
		</g>
		<g>
			<g>
				<defs>
					<path id="SVGID_3_" d="M478.822,315.801c3.57-15.324,3.469-30.743,1.086-44.906l-5.29-17.822
						c-6.979-16.486-21.058-31.078-41.661-43.92l-13.039-8.224c-2.127-1.229-4.256-2.459-6.381-3.687
						c-2.227,0.083-5.217-2.821-7.729-3.884c-10.235-5.38-19.95-9.074-29.282-11.367l-15.806-2.633
						c-18.229-1.566-35.191,2.037-52.021,8.467l-20.013,8.893c-14.873,7.466-57.707,40.896-57.707,40.896
						c-6.823,6.595-27.124,30.184-40.354,56.028c-12.229,23.893-17.695,50.145-17.865,56.409c0,0,2.496,28.597,3.606,33.262
						c1.033,2.697,8.256,24.769,12.703,32.607l9.689,14.484c6.038,7.736,13.327,15.145,22.072,22.162l10.97,8.079
						c4.873,3.284,33.674,17.782,40.137,20.191l19.871,6.171c26.254,6.447,50.593,5.722,73.689,0.342
						c2.695-1.032,5.475-1.777,8.325-2.229c4.975-1.875,34.717-12.263,34.717-12.263c13.644-5.388,26.866-12.365,38.71-24.472
						c1.104-1.903,2.203-3.812,3.307-5.713c11.044-17.669-12.625-31.345-30.065-33.215c-14.85-1.587-26.28,5.898-39.798,11.015
						c-21.265,8.042-43.594,11.285-68.94,7.656c-36.988-5.296-71.554-28.748-79.814-60.792c-1.028-2.698-1.772-5.472-2.227-8.326
						c-2.902-15.952-2.537-32.774,7.248-52.115c1.642-4.525,5.79-11.704,8.896-15.385c20.124-29.617,47.786-42.509,74.439-49.64
						c26.736-7.15,57.378-8.376,89.834,7.941c1.333-0.573,3.444,1.772,5.09,2.353c0.876,0.508,1.76,1.014,2.641,1.525
						c1.322,1.135,4.409,1.796,4.579,3.235c8.892,3.944,8.82,10.278,11.319,15.926c0.91,2.238,1.532,4.547,1.857,6.938
						c6.848,20.748-5.469,45.983-23.733,61.354c-17.917,15.059-39.255,28.677-61.067,20.422c-1.465,0.127-5.53-2.227-6.154-3.56
						c-14.43-11.006-19.413-24.541-15.985-40.325c12.812,4.129,14.516,21.047,28.028,25.585c10.889,3.655,20.773-3.438,28.852-14.41
						c1.104-1.904,2.203-3.809,3.303-5.714c11.423-22.258,2.437-33.048-15.359-47.492c-2.782-1.608-5.573-3.22-8.354-4.827
						c-35.82-12.565-62.87-14.811-85.1,23.44c-1.946,3.369-3.898,6.741-5.845,10.113c-16.221,24.174-4.584,42.091,7.583,58.922
						c7.6,10.526,16.811,23.846,30.388,31.641c27.858,15.983,58.643,8.553,80.42,1.908c14.025-4.276,28.588-10.186,41.861-18.893
						l13.112-10.007c4.794-4.244,9.301-8.964,13.384-14.281c5.5-7.161,9.699-14.649,12.866-22.274L478.822,315.801z"/>
				</defs>
				<clipPath id="SVGID_4_">
					<use xlink:href="#SVGID_3_"  overflow="visible"/>
				</clipPath>
				<g clip-path="url(#SVGID_4_)">
					<g>
						<path fill="#F17A22" d="M305.52,178.053c-9.547,3.646-19.074,7.775-28.636,12.281c-2.718,1.281-5.445,2.711-8.167,4.078
							l58.327,44.8L305.52,178.053z"/>
						<path fill="#F17A22" d="M193.932,279.635c-5.631,9.127-10.658,18.51-14.87,28.021l57.895-0.196L193.932,279.635z"/>
						<path fill="#F17A22" d="M183.949,407.426c5.989,10.561,12.848,20.886,20.701,30.95l35.226-57.572L183.949,407.426z"/>
						<path fill="#F17A22" d="M343.087,496.144c13.211-1.415,25.838-3.49,37.886-6.225l-29.081-60.713L343.087,496.144z"/>
						<path fill="#F17A22" d="M431.282,394.326c8.731-5.729,17.166-12.114,25.171-19.211l-45.273-32.489L431.282,394.326z"/>
						<path fill="#F17A22" d="M479.754,266.022c-0.132-0.79-0.235-1.593-0.378-2.381c-1.541-3.794-2.591-7.721-3.146-11.779
							c-1.38-5.486-3.226-10.843-5.454-16.104l-47.521,24.752L479.754,266.022z"/>
						<path fill="#F17A22" d="M433.815,208.569c-1.561-0.971-3.077-1.956-4.672-2.922c-3.939-3.095-11.816-5.138-13.179-8.924
							c-3.751-2.171-7.507-4.34-11.268-6.513l-3.396,62.814L433.815,208.569z"/>
						<path fill="#F17A22" d="M250.678,220.35c-8.574,6.95-16.812,14.153-24.519,21.555c-0.382,0.372-0.769,0.77-1.151,1.141
							l54.29,28.528L250.678,220.35z"/>
						<path fill="#F17A22" d="M173.643,338.053c-0.281,10.315,0.282,20.444,1.592,30.42l49.77-22.563L173.643,338.053z"/>
						<path fill="#F17A22" d="M239.875,467.815c10.762,6.076,22.103,11.885,34.099,17.402l15.843-63.979L239.875,467.815z"/>
						<path fill="#F17A22" d="M434.829,299.028l44.411,29.155c3.977-9.572,7.054-19.258,9.32-28.968L434.829,299.028z"/>
						<path fill="#F17A22" d="M384.957,183.796c-10.548-2.595-20.854-4.284-30.954-5.151l7.301,54.754L384.957,183.796z"/>
						<path fill="#F17A22" d="M375.711,407.471c9.312-1.576,18.617-3.82,27.817-6.803l-25.751-43.33L375.711,407.471z"/>
						<path fill="#F17A22" d="M285.235,380.371c8.566,8.78,17.83,17.058,27.808,24.681l27.253-59.491L285.235,380.371z"/>
					</g>
				</g>
			</g>
		</g>
	</g>
	<g id="Layer_2">
		<g>
			<path fill="#FED20D" d="M588.641,301.058c17.983-1.884,44.451-6.92,43.668,12.185c0,2.199,0,4.401,0,6.601
				c-1.288,12.548-14.471,14.136-25.893,17.264c-21.734,5.966-47.732,11.576-71.092,13.202c-1.693,0-3.383,0-5.074,0
				c-10.366-2.244-27.568-7.744-26.916-19.801c0.445-8.147,12.675-13.054,21.834-16.252
				C544.484,307.508,566.7,303.343,588.641,301.058z"/>
			<path fill="#FED20D" d="M608.188,476.261c5.861,6.792,1.187,26.555-7.106,28.432c-5.29,1.208-12.462-2.514-16.754-4.567
				c-25.073-11.931-44.624-23.105-68.549-38.084c-7.617-4.759-20.904-10.98-22.347-19.8c-1.692-10.347,5.504-19.722,14.729-20.82
				c10.048-1.207,23.271,3.764,30.975,7.617c9.118,4.57,16.672,9.988,23.355,14.727c17.096,12.125,31.145,21.283,44.684,31.48
				C607.68,475.625,607.785,475.795,608.188,476.261z"/>
			<path fill="#FED20D" d="M551.146,140.952c9.859-0.065,19.679,9.31,18.282,19.803c-0.788,5.86-7.747,11.636-13.203,16.756
				c-16.565,15.529-37.133,33.363-61.44,38.083c-2.031,0-4.062,0-6.094,0c-7.807-1.651-14.831-4.781-15.738-12.187
				c-1.122-9.079,9.624-17.204,14.219-21.326c12.713-11.425,26.49-19.444,41.127-28.943
				C534.792,148.908,542.77,140.995,551.146,140.952z"/>
			<path fill="#FED20D" d="M495.209,580.674c2.371,5.271,5.733,11.658,5.584,16.249c-0.296,8.952-10.005,17.267-19.799,16.755
				c-8.021-0.423-10.56-5.541-16.25-10.151c-1.819-2.245-3.854-4.271-6.094-6.097c-20.438-21.876-36.352-48.279-45.191-81.748
				c0-2.2,0-4.401,0-6.602c0.399-6.748,7.787-15.128,15.234-16.25c12.86-1.924,22.34,8.104,28.432,15.735
				C473.163,528.651,483.953,555.627,495.209,580.674z"/>
			<path fill="#FED20D" d="M380.961,30.133c12.165,2.392,18.283,10.833,17.266,26.403c-1.164,0.699-0.189,3.534-0.508,5.079
				c-1.858,23.506-5.036,58.71-14.217,78.704c-3.449,7.51-10.095,17.309-21.834,15.233c-9.69-1.712-12.991-12.014-13.707-23.864
				c0-4.908,0-9.816,0-14.726c0.231-15.614,2.982-35.797,7.109-50.777c4.145-14.999,8.463-31.058,21.319-36.052
				C377.918,30.133,379.441,30.133,380.961,30.133z"/>
			<path fill="#FED20D" d="M357.1,576.773c-1.168,1.208-0.195,4.551-0.51,6.604c-2.306,22.237-3.701,45.381-19.803,53.823
				c-1.523,0-3.044,0-4.571,0c-12.758-6.875-13.92-25.349-15.737-43.161c-0.339-2.708,0.677-6.77-0.51-8.633
				c0-1.353,0-2.706,0-4.062c1.187-2.539,0.171-7.277,0.51-10.661c0.677-11.742,1.163-21.981,3.554-33.515
				c1.715-8.295,4.868-23.062,13.202-23.866c10.872-1.058,17.074,14.11,19.799,23.866
				C356.569,549.778,356.951,562.345,357.1,576.773z"/>
			<path fill="#FED20D" d="M251.988,509.241c0,3.051,0,6.095,0,9.142c-4.674,27.986-18.956,57.567-37.574,77.174
				c-5.247,5.545-14.597,16.461-24.881,12.189c-3.511-1.456-4.613-5.757-5.584-10.668c0-2.026,0-4.061,0-6.092
				c4.951-33.978,19.019-58.836,36.051-80.734c2.413-1.984,4.611-4.187,6.601-6.595
				C232.863,495.255,252.413,494.199,251.988,509.241z"/>
			<path fill="#FED20D" d="M253.477,147.647c2.309,9.541,7.235,24.67-4.569,26.913c-1.694,0-3.386,0-5.08,0
				c-6.684-0.594-9.54-5.017-13.71-8.125c-2.327-2.751-4.865-5.289-7.615-7.617c-20.67-19.042-44.24-64.024-24.372-101.556
				c10.365,1.524,16.458,11.11,22.338,19.296C234.669,96.363,246.624,119.296,253.477,147.647z"/>
			<path fill="#FED20D" d="M184.164,234.031c2.137,9.836-4.316,16.08-12.694,16.755c-15.697,1.271-34-9.415-44.684-15.74
				c-13.646-8.081-25.049-16.544-35.035-25.389c-1.819-2.242-3.852-4.272-6.094-6.091c-5.627-8.104-15.51-14.619-13.709-28.436
				c12.502-2.265,24.457,2.687,35.036,6.601c20.585,7.596,39.183,16.736,56.872,29.451
				C171.85,216.915,182.028,224.127,184.164,234.031z"/>
			<path fill="#FED20D" d="M161.098,439.678c1.627,8.081-5.689,16.988-10.155,21.834c-10.154,11-23.548,19.373-37.068,25.893
				c-8.038,3.892-36.113,12.803-38.083-1.521c-1.162-8.381,6.221-11.679,9.14-17.266c1.906-1.483,3.597-3.173,5.079-5.075
				c9.161-7.345,18.004-14.789,29.958-21.326C125.638,439.127,157.839,423.451,161.098,439.678z"/>
			<path fill="#FED20D" d="M147.387,330c1.101,18.871-31.967,21.367-49.759,22.849c-6.095,0-12.188,0-18.28,0
				c-22.659-2.391-46.335-3.767-55.348-19.805c0-1.183,0-2.367,0-3.553c6.241-16.946,27.357-19.021,48.238-21.326
				c2.054-0.318,5.397,0.657,6.603-0.508c2.538,0,5.076,0,7.617,0c1.375,1.166,4.887,0.19,7.106,0.508
				c11.785,0.998,22.195,1.628,33.005,5.078C134.692,315.824,146.838,320.753,147.387,330z"/>
		</g>
		<g>
			<g>
				<path fill="#FED20D" d="M383.731,325.336c4.617-0.271,7.946-1.181,12.52,0.866c2.129,0.954,4.282,0.954,6.554,0.729
					c4.938-0.484,8.489-3.346,12.321-6.16c1.546-1.138-1.369-1.269-1.896-1.217c-1.915,0.182-3.919,0.774-5.479,1.921
					c-1.924,1.412-2.461,2.582-5.28,1.32c-1.34-0.602-2.749-1.314-4.229-1.428c-3.711-0.285-7.243,0.616-10.926,0.831
					C385.259,322.317,378.344,325.653,383.731,325.336L383.731,325.336z"/>
			</g>
		</g>
		<g>
			<g>
				<path fill="#FED20D" d="M400.741,326.451c2.583,3.285,6.264,5.47,10.504,5.267c1.764-0.083,4.127-0.722,5.477-1.933
					c1.405-1.266-1.254-1.305-1.915-1.272c1.121-0.054-0.263-0.172-0.603-0.306c-0.709-0.278-1.371-0.682-2.015-1.085
					c-1.204-0.757-2.395-1.736-3.275-2.861c-0.877-1.117-3.295-0.421-4.412-0.124C404.196,324.219,400.054,325.579,400.741,326.451
					L400.741,326.451z"/>
			</g>
		</g>
	</g>
</g>
<rect x="24" y="613.48" fill="none" width="608.325" height="156.688"/>
<text transform="matrix(1 0 0 1 63.8662 755.4785)" fill="#F17A22" font-family="'MyriadPro-Bold'" font-size="200">sun</text>
<text transform="matrix(1 0 0 1 384.4629 755.4785)" fill="#FED20D" font-family="'MyriadPro-Regular'" font-size="200">py</text>
<text transform="matrix(1 0 0 1 384.4629 755.4785)" fill="none" stroke="#454545" stroke-width="1.5" font-family="'MyriadPro-Regular'" font-size="200">py</text>
</svg>
