<?xml version="1.0" encoding="UTF-8" standalone="no"?>
<!-- Created with Inkscape (http://www.inkscape.org/) -->

<svg
   xmlns:osb="http://www.openswatchbook.org/uri/2009/osb"
   xmlns:dc="http://purl.org/dc/elements/1.1/"
   xmlns:cc="http://creativecommons.org/ns#"
   xmlns:rdf="http://www.w3.org/1999/02/22-rdf-syntax-ns#"
   xmlns:svg="http://www.w3.org/2000/svg"
   xmlns="http://www.w3.org/2000/svg"
   xmlns:xlink="http://www.w3.org/1999/xlink"
   xmlns:sodipodi="http://sodipodi.sourceforge.net/DTD/sodipodi-0.dtd"
   xmlns:inkscape="http://www.inkscape.org/namespaces/inkscape"
   width="93.220917"
   height="79.587029"
   id="svg2816"
   version="1.1"
   inkscape:version="0.48.0 r9654"
   sodipodi:docname="sunpy_logo_64x64_full.svg">
  <defs
     id="defs2818">
    <linearGradient
       id="linearGradient5371"
       osb:paint="solid">
      <stop
         style="stop-color:#000000;stop-opacity:1;"
         offset="0"
         id="stop5373" />
    </linearGradient>
    <linearGradient
       id="linearGradient3921">
      <stop
         style="stop-color:#f9ce98;stop-opacity:1;"
         offset="0"
         id="stop3923" />
      <stop
         style="stop-color:#ffba00;stop-opacity:0;"
         offset="1"
         id="stop3925" />
    </linearGradient>
    <linearGradient
       id="linearGradient3655">
      <stop
         style="stop-color:#ff5f31;stop-opacity:1;"
         offset="0"
         id="stop3657" />
      <stop
         style="stop-color:#ff9700;stop-opacity:0;"
         offset="1"
         id="stop3659" />
    </linearGradient>
    <linearGradient
       inkscape:collect="always"
       id="linearGradient3647">
      <stop
         style="stop-color:#f5a708;stop-opacity:1;"
         offset="0"
         id="stop3649" />
      <stop
         style="stop-color:#f5a708;stop-opacity:0;"
         offset="1"
         id="stop3651" />
    </linearGradient>
    <inkscape:perspective
       sodipodi:type="inkscape:persp3d"
       inkscape:vp_x="0 : 32 : 1"
       inkscape:vp_y="0 : 1000 : 0"
       inkscape:vp_z="64 : 32 : 1"
       inkscape:persp3d-origin="32 : 21.333333 : 1"
       id="perspective2824" />
    <radialGradient
       inkscape:collect="always"
       xlink:href="#linearGradient3647"
       id="radialGradient3653"
       cx="28.865353"
       cy="26.114223"
       fx="28.865353"
       fy="26.114223"
       r="27.805172"
       gradientTransform="matrix(1,0,0,0.91194442,0,2.2995031)"
       gradientUnits="userSpaceOnUse" />
    <radialGradient
       inkscape:collect="always"
       xlink:href="#linearGradient3655"
       id="radialGradient3663"
       cx="28.865353"
       cy="26.114223"
       fx="28.865353"
       fy="26.114223"
       r="27.805172"
       gradientTransform="matrix(1,0,0,0.91194442,0,2.2995031)"
       gradientUnits="userSpaceOnUse" />
    <radialGradient
       inkscape:collect="always"
       xlink:href="#linearGradient3655"
       id="radialGradient3004"
       gradientUnits="userSpaceOnUse"
       gradientTransform="matrix(1.646779,0,0,2.7118193,-15.52707,17.155969)"
       cx="28.865353"
       cy="26.114223"
       fx="28.865353"
       fy="26.114223"
       r="27.805172" />
    <inkscape:perspective
       id="perspective3956"
       inkscape:persp3d-origin="0.5 : 0.33333333 : 1"
       inkscape:vp_z="1 : 0.5 : 1"
       inkscape:vp_y="0 : 1000 : 0"
       inkscape:vp_x="0 : 0.5 : 1"
       sodipodi:type="inkscape:persp3d" />
    <inkscape:path-effect
       effect="spiro"
       id="path-effect3800"
       is_visible="true" />
    <inkscape:path-effect
       effect="skeletal"
       id="path-effect3802"
       is_visible="true"
       pattern="m 38.002513,-40.46334 c -37.54094207,8.22815 -71.482067,-1.157086 -29.0556598,10.413754 42.4264068,11.57084 62.0968318,14.399266 34.4553848,7.713896 -135.954052,-41.148482 -20.184685,-5.1426 -8.099587,-5.65686 12.085098,-0.51426 26.484363,-0.51426 7.842457,-1.7999 -18.641906,-1.28565 -15.427784,-1.028521 -7.199632,-1.671351 8.228152,-0.64282 18.384776,-2.185599 3.342686,-2.185599 -15.04209,0 -33.812561,1.028518 -8.999541,-1.67134 25.97102,-2.825858 19.79899,-2.571297 7.585327,-5.142597"
       copytype="single_stretched"
       prop_scale="1"
       scale_y_rel="false"
       spacing="0"
       normal_offset="0"
       tang_offset="0"
       prop_units="false"
       vertical_pattern="false"
       fuse_tolerance="0"
       pattern-nodetypes="cccccsssc" />
    <filter
       id="filter5101"
       inkscape:label="Drop shadow"
       width="1.5"
       height="1.5"
       x="-0.25"
       y="-0.25"
       color-interpolation-filters="sRGB">
      <feGaussianBlur
         id="feGaussianBlur5103"
         in="SourceAlpha"
         stdDeviation="2.000000"
         result="blur" />
      <feColorMatrix
         id="feColorMatrix5105"
         result="bluralpha"
         type="matrix"
         values="1 0 0 0 0 0 1 0 0 0 0 0 1 0 0 0 0 0 0.500000 0 " />
      <feOffset
         id="feOffset5107"
         in="bluralpha"
         dx="4.000000"
         dy="4.000000"
         result="offsetBlur" />
      <feMerge
         id="feMerge5109">
        <feMergeNode
           id="feMergeNode5111"
           in="offsetBlur" />
        <feMergeNode
           id="feMergeNode5113"
           in="SourceGraphic" />
      </feMerge>
    </filter>
    <filter
       inkscape:collect="always"
       id="filter3917">
      <feGaussianBlur
         inkscape:collect="always"
         stdDeviation="0.27132812"
         id="feGaussianBlur3919" />
    </filter>
    <radialGradient
       inkscape:collect="always"
       xlink:href="#linearGradient3921"
       id="radialGradient5387"
       cx="32.150997"
       cy="18.158714"
       fx="32.150997"
       fy="18.158714"
       r="32.151001"
       gradientTransform="matrix(1,0,0,0.72833854,34,2.9330228)"
       gradientUnits="userSpaceOnUse" />
    <linearGradient
       inkscape:collect="always"
       xlink:href="#linearGradient3921"
       id="linearGradient5446"
       x1="2.46875"
       y1="15.004123"
       x2="61.53125"
       y2="15.004123"
       gradientUnits="userSpaceOnUse"
       gradientTransform="matrix(-1,0,0,1,64,0)" />
  </defs>
  <sodipodi:namedview
     id="base"
     pagecolor="#ffffff"
     bordercolor="#666666"
     borderopacity="1.0"
     inkscape:pageopacity="0.0"
     inkscape:pageshadow="2"
     inkscape:zoom="4.5599466"
     inkscape:cx="-20.609002"
     inkscape:cy="33.028723"
     inkscape:current-layer="layer1"
     showgrid="true"
     inkscape:document-units="px"
     inkscape:grid-bbox="true"
     inkscape:window-width="1920"
     inkscape:window-height="1151"
     inkscape:window-x="0"
     inkscape:window-y="24"
     inkscape:window-maximized="1" />
  <metadata
     id="metadata2821">
    <rdf:RDF>
      <cc:Work
         rdf:about="">
        <dc:format>image/svg+xml</dc:format>
        <dc:type
           rdf:resource="http://purl.org/dc/dcmitype/StillImage" />
        <dc:title></dc:title>
      </cc:Work>
    </rdf:RDF>
  </metadata>
  <g
     id="layer1"
     inkscape:label="Layer 1"
     inkscape:groupmode="layer"
     transform="translate(0,14.011502)">
    <path
       sodipodi:type="arc"
       style="fill:#ffba00;fill-opacity:1;fill-rule:evenodd;stroke:#f5a708;stroke-width:0.99949646;stroke-linecap:butt;stroke-linejoin:miter;stroke-miterlimit:4;stroke-opacity:1;stroke-dasharray:none"
       id="path2826"
       sodipodi:cx="32.909092"
       sodipodi:cy="32.272728"
       sodipodi:rx="32.909092"
       sodipodi:ry="31.90909"
       d="m 65.818184,32.272728 c 0,17.622904 -14.733902,31.90909 -32.909092,31.90909 C 14.733902,64.181818 0,49.895632 0,32.272728 0,14.649824 14.733902,0.36363792 32.909092,0.36363792 c 18.17519,0 32.909092,14.28618608 32.909092,31.90909008 z"
       transform="matrix(0.95760026,0,0,0.98761059,0.48624484,-5.8728867)" />
    <path
       style="fill:url(#radialGradient3004);fill-opacity:1;stroke:none"
       d="M 32.000002,14 C 19.476728,14 8.1563067,22.4259 0,36 8.1565572,49.577383 19.475008,58 32.000002,58 44.523378,58 55.84368,49.574302 64,36 55.843912,22.42878 44.521762,14 32.000002,14 z"
       id="path3645" />
    <path
       style="opacity:0.65441176;fill:url(#linearGradient5446);fill-opacity:1;fill-rule:evenodd;stroke:none"
       d="m 32,-5.511502 c 13.52777,0 25.062822,8.530312 29.53125,20.5 C 57.070161,26.972484 45.538024,35.519748 32,35.519748 c -13.538024,0 -25.070161,-8.547264 -29.53125,-20.53125 4.468428,-11.969688 16.00348,-20.5 29.53125,-20.5 z"
       id="path5389"
       inkscape:connector-curvature="0" />
    <path
       style="fill:#ff8400;fill-opacity:1;fill-rule:evenodd;stroke:#000000;stroke-width:0.90589929;stroke-opacity:0"
       d="M 92.460395,34.217754 C 92.12857,32.920237 91.69663,31.64282 91.166331,30.395097 89.157132,25.807933 85.956383,22.042368 81.980274,19.375739 77.963827,16.701123 73.416687,15.269902 68.807517,15.08986 c -7.081557,-0.08853 -13.203972,2.203016 -17.9208,5.624016 -4.806347,3.423955 -8.397783,7.349402 -11.360437,11.070555 -0.473783,0.580898 -0.886376,1.100767 -1.258234,1.546726 -2.121214,2.457402 -4.574863,4.60738 -7.16653,6.188137 -2.591667,1.580756 -5.320528,2.591884 -8.016902,2.863299 -2.902667,0.35275 -5.804911,0.03257 -8.222237,-0.945138 -2.583411,-1.037415 -4.80877,-2.769668 -6.1711586,-4.775632 -1.2491749,-1.777341 -1.9708315,-3.900808 -2.1768759,-5.915369 -0.2363838,-2.248859 0.1681613,-4.49403 0.9336657,-6.372503 0.9802756,-2.513965 2.7888448,-4.50203 4.5997278,-5.883922 1.810883,-1.381893 3.637091,-2.172354 5.140538,-2.596219 1.502243,-0.445735 2.768685,-0.559613 3.645517,-0.632974 0.876833,-0.07336 1.375748,-0.106852 1.435711,-0.220642 0.05996,-0.113791 -0.316968,-0.313228 -1.209177,-0.506524 -0.892208,-0.193296 -2.315435,-0.395469 -4.271557,-0.155528 -1.651814,0.186045 -3.751445,0.719651 -6.049424,2.016905 -1.148989,0.648627 -2.3411384,1.489439 -3.4827694,2.574459 -1.141631,1.085019 -2.234379,2.414788 -3.1158798,4.032535 -1.2216034,2.219912 -2.105356,5.010835 -2.1399002,8.159369 -0.031347,2.713759 0.5805327,5.723949 2.1242936,8.578873 1.6538137,3.068104 4.4265986,5.947176 8.1255468,7.917497 0.145318,0.07739 0.291974,0.153364 0.439946,0.227878 3.432837,1.728677 7.321541,2.548143 11.179029,2.50479 4.260923,-0.06074 8.409039,-1.124903 12.212323,-2.857654 3.803284,-1.732751 7.261977,-4.134206 10.204024,-6.922401 0.566346,-0.529417 1.09183,-1.041391 1.590816,-1.515786 3.3561,-3.149104 6.609236,-5.893822 9.954891,-7.515544 4e-6,-1e-6 8e-6,-3e-6 1.2e-5,-5e-6 3.550553,-1.674913 7.132023,-2.443139 9.842234,-1.728829 1.900901,0.413895 3.612473,1.36741 4.781937,2.543579 1.24704,1.238698 2.075193,2.817873 2.350109,4.252258 0.245167,1.150721 0.155377,2.396904 -0.136971,3.494029 -0.292348,1.097126 -0.787532,2.045895 -1.385082,2.686762 -0.654276,0.77432 -1.5777,1.372503 -2.47933,1.74689 -0.90163,0.374387 -1.78304,0.525506 -2.476242,0.446613 -1e-6,0 -2e-6,0 -3e-6,0 -0.878074,-0.0411 -1.792007,-0.388883 -2.50085,-0.806123 -0.708843,-0.41724 -1.217168,-0.906721 -1.470515,-1.352251 -0.327246,-0.46934 -0.528646,-1.054031 -0.645383,-1.553119 -0.116737,-0.499088 -0.150106,-0.920594 -0.151634,-1.232447 -0.0031,-0.623704 0.09374,-0.842484 0.03338,-0.865639 -0.06035,-0.02315 -0.29258,0.137922 -0.429104,0.812696 -0.06826,0.337387 -0.102424,0.816235 -0.02003,1.420747 0.08239,0.604513 0.283159,1.348718 0.695245,1.984558 0.295702,0.534549 0.867241,1.115863 1.681271,1.608582 0.814031,0.492719 1.877524,0.900924 2.954648,0.943279 1.170753,0.104933 2.74969,-0.303993 4.164313,-1.242103 0.613801,-0.371486 1.17415,-0.824051 1.629872,-1.338207 1.586393,-1.667435 2.408038,-4.703532 1.893971,-7.272962 -0.335897,-1.805951 -1.335537,-3.64497 -2.740286,-5.055784 -1.449861,-1.467743 -3.467059,-2.550887 -5.610752,-3.025566 -3.405862,-0.847566 -7.452728,0.09433 -11.082164,1.81001 -3.862219,1.852797 -7.305061,4.764132 -10.549326,7.754048 -0.519259,0.480995 -1.043757,0.976621 -1.585966,1.465159 -3.148897,2.852041 -6.673357,5.081679 -10.258933,6.569169 -3.585575,1.48749 -7.233337,2.23373 -10.71761,2.183913 -3.8351,-0.04445 -7.424028,-1.008627 -10.324494,-2.655472 C 10.174502,43.403356 7.787668,40.868497 6.4530098,38.170817 5.255077,35.793871 4.782634,33.226257 4.8844882,30.8963 c 0.1054596,-2.524614 0.8832332,-4.868568 2.0037682,-6.754543 1.2524718,-2.158882 3.0890769,-3.802562 4.9981056,-4.933092 1.909029,-1.13053 3.895197,-1.749431 5.671611,-1.912269 2.362886,-0.265874 4.620757,0.207081 6.490145,0.952905 1.869389,0.745824 3.35932,1.77065 4.431212,2.822701 1.041579,0.979623 1.807877,2.071099 2.381098,3.108529 0.57322,1.037431 0.953804,2.024595 1.21446,2.896645 0.521312,1.744099 0.580755,3.014084 0.576127,3.81919 7e-6,0.905481 -0.06549,1.306427 -0.06856,1.287694 -0.0031,-0.01873 0.04878,-0.458859 0.03816,-1.281899 -0.0068,-0.881789 -0.112512,-2.281112 -0.693163,-4.047023 -0.290326,-0.882955 -0.700769,-1.851588 -1.275879,-2.82961 -0.575111,-0.978022 -1.315293,-1.966017 -2.254187,-2.832613 -1.135053,-1.094452 -2.700913,-2.112496 -4.56902,-2.811719 -1.868107,-0.699224 -4.038073,-1.078462 -6.198861,-0.813454 -3e-6,0 -6e-6,0 -1e-5,1e-6 -1.833633,0.184346 -3.834365,0.868294 -5.678948,2.015193 -1.844583,1.1469 -3.5305874,2.756153 -4.647951,4.730697 -1.0975295,1.886988 -1.7978514,4.17752 -1.8731122,6.532563 -0.078917,2.306637 0.437953,4.769426 1.5684895,6.957204 1.3455894,2.663639 3.7301077,5.029066 6.6091607,6.623594 5e-6,2e-6 10e-6,5e-6 1.4e-5,8e-6 2.908262,1.613034 6.4012,2.424239 9.91537,2.422715 3.690176,0.01774 7.379849,-0.92023 10.795367,-2.484924 3.415518,-1.564694 6.554502,-3.7533 9.222358,-6.247157 0.520246,-0.486681 1.026315,-0.986288 1.532113,-1.478067 1.743569,-1.695265 3.496647,-3.303245 5.272158,-4.719578 1.775512,-1.416333 3.57353,-2.640813 5.39529,-3.613588 4e-6,-2e-6 8e-6,-4e-6 1.2e-5,-7e-6 2.174171,-1.155802 4.38971,-1.961593 6.474304,-2.38969 2.084593,-0.428097 4.03883,-0.479255 5.778042,-0.210356 1.550242,0.223378 2.939157,0.675916 4.129444,1.223006 1.190288,0.54709 2.183314,1.189192 2.995001,1.827704 0.95642,0.749975 1.677425,1.498969 2.232409,2.122645 1.009768,1.134749 1.84089,2.454476 2.406475,3.875243 10e-7,2e-6 10e-7,3e-6 2e-6,5e-6 0.731076,1.809956 1.017677,3.836727 0.876049,5.818543 -0.141628,1.981816 -0.711057,3.914965 -1.650212,5.568301 -1.030788,1.840026 -2.535744,3.37805 -4.206111,4.501639 -1.670366,1.123589 -3.502874,1.831574 -5.260894,2.123118 -1.334504,0.228764 -2.645453,0.225232 -3.854634,0.07467 -1.209181,-0.150564 -2.316828,-0.447843 -3.286303,-0.811822 -1.938949,-0.727959 -3.30746,-1.709721 -4.170439,-2.427501 -0.798388,-0.657889 -1.204191,-1.092199 -1.27224,-1.076788 -0.06805,0.01541 0.188109,0.492727 1.01938,1.353722 0.711152,0.741755 1.876137,1.778262 3.785932,2.690658 0.954898,0.456197 2.096461,0.874512 3.429371,1.142082 1.33291,0.267571 2.860166,0.385844 4.520991,0.178756 1.375239,-0.16841 2.84456,-0.565788 4.320813,-1.257863 1.476252,-0.692074 2.961395,-1.679866 4.290759,-3.008326 0.8212,-0.820641 1.52556,-1.715441 2.103506,-2.656065 1.32273,-2.146411 1.986808,-4.51254 2.158052,-6.75564 0.171244,-2.243099 -0.149813,-4.368189 -0.806781,-6.220593 -0.568324,-1.604428 -1.372582,-3.008954 -2.279236,-4.201492 -0.906654,-1.192537 -1.916696,-2.17423 -2.943098,-2.965674 -1.557235,-1.200767 -3.140855,-1.968469 -4.571733,-2.471916 -1.430878,-0.503447 -2.714828,-0.743963 -3.7964,-0.861261 -1.611223,-0.172922 -2.760721,-0.09593 -3.487446,-0.04736 -0.726725,0.04857 -1.034964,0.07865 -0.975139,0.03518 0.05983,-0.04347 0.488047,-0.157092 1.249042,-0.268321 0.760994,-0.111228 1.856749,-0.219477 3.246713,-0.151404 1.198078,0.06233 2.604458,0.266833 4.124902,0.73563 1.520445,0.468798 3.155778,1.20332 4.739305,2.306075 1.49417,1.041579 2.929289,2.410447 4.127088,4.09545 0.723064,1.017171 1.345268,2.128918 1.835489,3.310049 0.97433,2.360262 1.380588,4.962298 1.23226,7.488004 -0.148329,2.525706 -0.850451,4.96608 -1.965096,7.071725 -0.847617,1.588279 -1.908876,2.960469 -3.0424,4.099541 -1.133524,1.139073 -2.33841,2.04535 -3.491943,2.748163 -2.307066,1.405628 -4.383826,1.99364 -5.558028,2.311213 -0.673772,0.178761 -1.053542,0.276719 -1.066179,0.346986 -0.01264,0.07027 0.342148,0.117955 1.128332,0.05897 10e-7,0 10e-7,0 2e-6,0 0.523456,-0.04217 1.235903,-0.136022 2.133159,-0.352792 0.897256,-0.21677 1.981234,-0.55683 3.208899,-1.12845 1.227665,-0.571619 2.602254,-1.376075 4.003674,-2.546638 1.401421,-1.170564 2.834709,-2.709786 4.041155,-4.747643 1.386684,-2.374822 2.408325,-5.360558 2.524002,-8.796853 0.08227,-2.443782 -0.308971,-4.935821 -1.206129,-7.294118 -1.314126,-3.406901 -3.618786,-6.38324 -6.550648,-8.513772 -2.978272,-2.157565 -6.49726,-3.394568 -10.02899,-3.650562 -2.865641,-0.172315 -5.604384,0.236165 -8.110713,1.010223 -2.506329,0.774059 -4.779538,1.911987 -6.757282,3.216979 -2e-6,2e-6 -4e-6,3e-6 -5e-6,4e-6 -2.4309,1.589806 -4.469224,3.337866 -6.225223,5.032061 -1.755998,1.694195 -3.230302,3.334173 -4.49226,4.789419 -0.502336,0.573425 -0.951844,1.093363 -1.370319,1.55117 -1.361567,1.470191 -2.591651,2.545842 -3.493405,3.260181 -0.901755,0.714338 -1.474742,1.075858 -1.602695,1.100725 -0.127953,0.02487 0.191988,-0.281875 0.974342,-1.029951 0.782355,-0.748076 2.037052,-1.945458 3.586384,-3.817007 0.378997,-0.46512 0.79646,-1.000993 1.283139,-1.610108 1e-6,-2e-6 3e-6,-3e-6 4e-6,-5e-6 1.111335,-1.409044 2.448368,-3.036856 4.150285,-4.817428 1.701918,-1.780572 3.764077,-3.720138 6.456088,-5.606859 1.657393,-1.174832 3.584186,-2.272607 5.803868,-3.14264 2.219682,-0.870032 4.732995,-1.51384 7.538599,-1.702545 0.797139,-0.05362 1.597232,-0.06858 2.398228,-0.04454 4.163392,0.199201 7.992946,1.594654 11.140254,3.751966 3.564845,2.455204 6.090897,5.788143 7.581195,9.351226 1.40073,3.420091 1.797999,6.863448 1.531266,10.012223 -0.266733,3.148776 -1.197781,6.009335 -2.514803,8.47181 -1.072554,1.958016 -2.344285,3.590878 -3.679401,4.945823 -1.335116,1.354945 -2.734694,2.432695 -4.111468,3.292001 -2.753547,1.718611 -5.395437,2.569657 -7.597429,3.024886 -2.603263,0.509003 -4.486014,0.486716 -5.681621,0.476434 -1.195607,-0.01028 -1.717784,-0.01926 -1.637469,0.102962 0.08031,0.122219 0.764369,0.369249 2.027057,0.583732 1.262688,0.214484 3.111283,0.392497 5.4954,0.165167 2e-6,-10e-7 3e-6,-10e-7 4e-6,-10e-7 2.580588,-0.277608 5.67465,-1.043069 8.837365,-2.757305 3.162716,-1.714236 6.396894,-4.386067 8.941316,-8.324571 1.559842,-2.484489 2.750037,-5.318756 3.388754,-8.407334 0.638717,-3.088578 0.725573,-6.430897 0.08391,-9.864733"
       id="path3798"
       inkscape:path-effect="#path-effect3800;#path-effect3802"
       inkscape:original-d="m 44.182259,31.071218 c 1.484461,-0.23787 8.079457,-2.415367 -0.330437,-2.31049 C 35.441928,28.865611 1.4391244,37.786553 3.5012581,40.160866 5.5633928,42.535178 38.242196,39.142519 43.670728,38.2361 49.099259,37.329678 41.566253,38.337742 45.07553,36.642347 48.584802,34.946946 58.320637,24.87056 68.143553,23.735138 77.966469,22.599719 91.106262,30.545636 81.9635,33.911313 72.820737,37.27699 51.993959,38.499851 51.993959,38.499851"
       sodipodi:nodetypes="cssssssc" />
    <text
       xml:space="preserve"
       style="font-size:70.1503067px;font-style:normal;font-weight:normal;fill:#f74600;fill-opacity:0.83856506;stroke:none;filter:url(#filter5101);font-family:Bitstream Vera Sans"
       x="9.3758297"
       y="51.317684"
       id="text3997"><tspan
         sodipodi:role="line"
         id="tspan3999"
         x="9.3758297"
         y="51.317684">S</tspan></text>
  </g>
</svg>
