<?xml version="1.0" encoding="utf-8"?>
<!-- Generator: Adobe Illustrator 14.0.0, SVG Export Plug-In . SVG Version: 6.00 Build 43363)  -->
<!DOCTYPE svg PUBLIC "-//W3C//DTD SVG 1.1//EN" "http://www.w3.org/Graphics/SVG/1.1/DTD/svg11.dtd">
<svg version="1.1" id="Layer_1" xmlns="http://www.w3.org/2000/svg" xmlns:xlink="http://www.w3.org/1999/xlink" x="0px" y="0px"
	 width="430.849px" height="220px" viewBox="-1332.5 2776.335 430.849 220" enable-background="new -1332.5 2776.335 430.849 220"
	 xml:space="preserve">
<g>
	<g id="Layer_1_1_">
		<g>
			<g>
				<g>
					<defs>
						<path id="SVGID_1_" d="M-1166.996,2880.542c1.232-5.287,1.197-10.605,0.374-15.491l-1.824-6.148
							c-2.408-5.688-7.264-10.721-14.371-15.15l-4.499-2.837c-0.733-0.424-1.468-0.849-2.202-1.271
							c-0.767,0.028-1.798-0.973-2.665-1.34c-3.53-1.856-6.882-3.13-10.102-3.921l-5.451-0.908
							c-6.29-0.541-12.14,0.703-17.945,2.921l-6.904,3.067c-5.13,2.576-19.906,14.107-19.906,14.107
							c-2.354,2.275-9.356,10.412-13.92,19.327c-4.218,8.242-6.104,17.297-6.163,19.458c0,0,0.86,9.865,1.244,11.473
							c0.356,0.931,2.848,8.545,4.382,11.249l3.343,4.997c2.082,2.669,4.597,5.224,7.613,7.645l3.784,2.788
							c1.681,1.133,11.616,6.134,13.846,6.965l6.854,2.127c9.057,2.225,17.452,1.975,25.419,0.119
							c0.93-0.357,1.888-0.614,2.871-0.77c1.716-0.648,11.976-4.231,11.976-4.231c4.707-1.857,9.269-4.265,13.354-8.441
							c0.38-0.656,0.76-1.314,1.141-1.971c3.809-6.094-4.355-10.812-10.372-11.457c-5.122-0.547-9.065,2.036-13.729,3.8
							c-7.335,2.775-15.037,3.893-23.781,2.641c-12.758-1.828-24.682-9.917-27.532-20.971c-0.355-0.93-0.611-1.887-0.768-2.872
							c-1.001-5.501-0.876-11.304,2.5-17.977c0.566-1.561,1.998-4.037,3.069-5.307c6.942-10.216,16.484-14.664,25.679-17.124
							c9.223-2.466,19.792-2.89,30.987,2.739c0.46-0.197,1.189,0.611,1.757,0.812c0.303,0.176,0.606,0.35,0.91,0.526
							c0.456,0.391,1.521,0.619,1.58,1.116c3.066,1.36,3.042,3.545,3.904,5.494c0.313,0.772,0.528,1.569,0.641,2.393
							c2.362,7.158-1.886,15.863-8.187,21.165c-6.18,5.194-13.541,9.892-21.065,7.044c-0.505,0.044-1.908-0.767-2.123-1.228
							c-4.978-3.796-6.697-8.464-5.514-13.91c4.419,1.424,5.007,7.261,9.668,8.826c3.756,1.261,7.167-1.185,9.953-4.97
							c0.38-0.657,0.76-1.313,1.14-1.971c3.94-7.677,0.84-11.399-5.299-16.382c-0.96-0.555-1.922-1.11-2.881-1.665
							c-12.357-4.334-21.688-5.109-29.356,8.085c-0.671,1.162-1.345,2.325-2.016,3.488c-5.596,8.339-1.582,14.519,2.615,20.325
							c2.622,3.632,5.799,8.225,10.483,10.915c9.61,5.514,20.229,2.95,27.741,0.659c4.837-1.476,9.861-3.514,14.44-6.518
							l4.524-3.452c1.653-1.464,3.208-3.092,4.617-4.927c1.896-2.471,3.346-5.053,4.438-7.683L-1166.996,2880.542z"/>
					</defs>
					<clipPath id="SVGID_2_">
						<use xlink:href="#SVGID_1_"  overflow="visible"/>
					</clipPath>
					<rect x="-1274.747" y="2831.821" clip-path="url(#SVGID_2_)" fill="#FED20B" width="111.175" height="111.425"/>
				</g>
			</g>
		</g>
		<g>
			<g>
				<g>
					<defs>
						<path id="SVGID_3_" d="M-1166.996,2880.542c1.232-5.287,1.197-10.605,0.374-15.491l-1.824-6.148
							c-2.408-5.688-7.264-10.721-14.371-15.15l-4.499-2.837c-0.733-0.424-1.468-0.849-2.202-1.271
							c-0.767,0.028-1.798-0.973-2.665-1.34c-3.53-1.856-6.882-3.13-10.102-3.921l-5.451-0.908
							c-6.29-0.541-12.14,0.703-17.945,2.921l-6.904,3.067c-5.13,2.576-19.906,14.107-19.906,14.107
							c-2.354,2.275-9.356,10.412-13.92,19.327c-4.218,8.242-6.104,17.297-6.163,19.458c0,0,0.86,9.865,1.244,11.473
							c0.356,0.931,2.848,8.545,4.382,11.249l3.343,4.997c2.082,2.669,4.597,5.224,7.613,7.645l3.784,2.788
							c1.681,1.133,11.616,6.134,13.846,6.965l6.854,2.127c9.057,2.225,17.452,1.975,25.419,0.119
							c0.93-0.357,1.888-0.614,2.871-0.77c1.716-0.648,11.976-4.231,11.976-4.231c4.707-1.857,9.269-4.265,13.354-8.441
							c0.38-0.656,0.76-1.314,1.141-1.971c3.809-6.094-4.355-10.812-10.372-11.457c-5.122-0.547-9.065,2.036-13.729,3.8
							c-7.335,2.775-15.037,3.893-23.781,2.641c-12.758-1.828-24.682-9.917-27.532-20.971c-0.355-0.93-0.611-1.887-0.768-2.872
							c-1.001-5.501-0.876-11.304,2.5-17.977c0.566-1.561,1.998-4.037,3.069-5.307c6.942-10.216,16.484-14.664,25.679-17.124
							c9.223-2.466,19.792-2.89,30.987,2.739c0.46-0.197,1.189,0.611,1.757,0.812c0.303,0.176,0.606,0.35,0.91,0.526
							c0.456,0.391,1.521,0.619,1.58,1.116c3.066,1.36,3.042,3.545,3.904,5.494c0.313,0.772,0.528,1.569,0.641,2.393
							c2.362,7.158-1.886,15.863-8.187,21.165c-6.18,5.194-13.541,9.892-21.065,7.044c-0.505,0.044-1.908-0.767-2.123-1.228
							c-4.978-3.796-6.697-8.464-5.514-13.91c4.419,1.424,5.007,7.261,9.668,8.826c3.756,1.261,7.167-1.185,9.953-4.97
							c0.38-0.657,0.76-1.313,1.14-1.971c3.94-7.677,0.84-11.399-5.299-16.382c-0.96-0.555-1.922-1.11-2.881-1.665
							c-12.357-4.334-21.688-5.109-29.356,8.085c-0.671,1.162-1.345,2.325-2.016,3.488c-5.596,8.339-1.582,14.519,2.615,20.325
							c2.622,3.632,5.799,8.225,10.483,10.915c9.61,5.514,20.229,2.95,27.741,0.659c4.837-1.476,9.861-3.514,14.44-6.518
							l4.524-3.452c1.653-1.464,3.208-3.092,4.617-4.927c1.896-2.471,3.346-5.053,4.438-7.683L-1166.996,2880.542z"/>
					</defs>
					<clipPath id="SVGID_4_">
						<use xlink:href="#SVGID_3_"  overflow="visible"/>
					</clipPath>
					<g clip-path="url(#SVGID_4_)">
						<g>
							<path fill="#F27900" d="M-1226.777,2833.026c-3.293,1.257-6.58,2.682-9.878,4.236c-0.938,0.442-1.878,0.936-2.817,1.407
								l20.121,15.454L-1226.777,2833.026z"/>
							<path fill="#F27900" d="M-1265.27,2868.066c-1.942,3.148-3.676,6.385-5.129,9.666l19.971-0.068L-1265.27,2868.066z"/>
							<path fill="#F27900" d="M-1268.713,2912.147c2.066,3.643,4.433,7.204,7.141,10.676l12.151-19.859L-1268.713,2912.147z"/>
							<path fill="#F27900" d="M-1213.818,2942.751c4.558-0.489,8.914-1.205,13.069-2.147l-10.031-20.943L-1213.818,2942.751z"/>
							<path fill="#F27900" d="M-1183.395,2907.629c3.013-1.976,5.921-4.18,8.683-6.627l-15.617-11.208L-1183.395,2907.629z"/>
							<path fill="#F27900" d="M-1166.674,2863.371c-0.046-0.272-0.082-0.55-0.13-0.821c-0.531-1.309-0.894-2.663-1.086-4.063
								c-0.475-1.892-1.112-3.74-1.881-5.555l-16.392,8.538L-1166.674,2863.371z"/>
							<path fill="#F27900" d="M-1182.521,2843.552c-0.538-0.335-1.061-0.675-1.611-1.008c-1.359-1.068-4.076-1.772-4.546-3.079
								c-1.295-0.75-2.59-1.498-3.887-2.247l-1.172,21.668L-1182.521,2843.552z"/>
							<path fill="#F27900" d="M-1245.695,2847.615c-2.957,2.397-5.798,4.881-8.457,7.435c-0.132,0.128-0.266,0.266-0.397,0.394
								l18.728,9.84L-1245.695,2847.615z"/>
							<path fill="#F27900" d="M-1272.268,2888.218c-0.097,3.558,0.097,7.052,0.549,10.493l17.169-7.784L-1272.268,2888.218z"/>
							<path fill="#F27900" d="M-1249.421,2932.979c3.712,2.097,7.624,4.099,11.762,6.002l5.465-22.069L-1249.421,2932.979z"/>
							<path fill="#F27900" d="M-1182.172,2874.756l15.321,10.057c1.371-3.302,2.433-6.643,3.214-9.993L-1182.172,2874.756z"/>
							<path fill="#F27900" d="M-1199.375,2835.007c-3.64-0.895-7.192-1.478-10.678-1.778l2.518,18.888L-1199.375,2835.007z"/>
							<path fill="#F27900" d="M-1202.564,2912.163c3.212-0.544,6.422-1.318,9.596-2.346l-8.883-14.946L-1202.564,2912.163z"/>
							<path fill="#F27900" d="M-1233.774,2902.815c2.955,3.028,6.15,5.884,9.592,8.514l9.401-20.521L-1233.774,2902.815z"/>
						</g>
					</g>
				</g>
			</g>
		</g>
	</g>
	<g id="Layer_2">
		<g>
			<path fill="#FED20B" d="M-1129.114,2875.456c6.205-0.649,15.334-2.387,15.063,4.203c0,0.759,0,1.519,0,2.277
				c-0.444,4.329-4.991,4.876-8.932,5.955c-7.496,2.059-16.465,3.993-24.522,4.555c-0.584,0-1.167,0-1.751,0
				c-3.577-0.775-9.51-2.671-9.285-6.83c0.154-2.811,4.372-4.503,7.532-5.606
				C-1144.346,2877.681-1136.683,2876.245-1129.114,2875.456z"/>
			<path fill="#FED20B" d="M-1122.371,2935.892c2.022,2.344,0.409,9.16-2.452,9.808c-1.825,0.417-4.299-0.867-5.78-1.576
				c-8.65-4.116-15.392-7.97-23.646-13.137c-2.628-1.642-7.212-3.787-7.708-6.83c-0.584-3.569,1.898-6.802,5.08-7.181
				c3.467-0.416,8.027,1.298,10.685,2.626c3.146,1.577,5.752,3.447,8.057,5.082c5.897,4.181,10.743,7.341,15.413,10.858
				C-1122.547,2935.673-1122.51,2935.731-1122.371,2935.892z"/>
			<path fill="#FED20B" d="M-1142.048,2820.227c3.401-0.022,6.788,3.212,6.306,6.832c-0.269,2.021-2.672,4.013-4.554,5.78
				c-5.715,5.357-12.808,11.509-21.193,13.137c-0.701,0-1.402,0-2.103,0c-2.692-0.569-5.115-1.649-5.429-4.204
				c-0.387-3.132,3.32-5.934,4.905-7.356c4.386-3.941,9.137-6.708,14.187-9.984
				C-1147.689,2822.972-1144.938,2820.242-1142.048,2820.227z"/>
			<path fill="#FED20B" d="M-1161.343,2971.91c0.817,1.818,1.978,4.021,1.926,5.605c-0.102,3.09-3.452,5.957-6.831,5.779
				c-2.766-0.145-3.641-1.91-5.605-3.502c-0.627-0.775-1.328-1.473-2.103-2.102c-7.05-7.547-12.539-16.655-15.588-28.2
				c0-0.759,0-1.518,0-2.278c0.137-2.328,2.685-5.219,5.254-5.606c4.437-0.663,7.708,2.796,9.808,5.429
				C-1168.948,2953.964-1165.227,2963.271-1161.343,2971.91z"/>
			<path fill="#FED20B" d="M-1200.753,2782c4.196,0.825,6.307,3.737,5.956,9.108c-0.401,0.241-0.065,1.219-0.176,1.752
				c-0.642,8.108-1.736,20.252-4.905,27.149c-1.189,2.591-3.48,5.971-7.531,5.254c-3.343-0.591-4.48-4.144-4.728-8.231
				c0-1.693,0-3.386,0-5.08c0.081-5.386,1.029-12.348,2.453-17.515c1.43-5.174,2.919-10.714,7.354-12.436
				C-1201.803,2782-1201.278,2782-1200.753,2782z"/>
			<path fill="#FED20B" d="M-1208.984,2970.566c-0.402,0.416-0.067,1.568-0.176,2.277c-0.795,7.672-1.277,15.654-6.831,18.566
				c-0.524,0-1.05,0-1.577,0c-4.401-2.371-4.802-8.744-5.428-14.889c-0.117-0.934,0.232-2.334-0.176-2.977c0-0.469,0-0.936,0-1.402
				c0.409-0.875,0.059-2.51,0.176-3.678c0.232-4.051,0.401-7.583,1.226-11.561c0.591-2.862,1.679-7.956,4.554-8.233
				c3.751-0.365,5.89,4.868,6.83,8.233C-1209.167,2961.253-1209.036,2965.587-1208.984,2970.566z"/>
			<path fill="#FED20B" d="M-1245.243,2947.269c0,1.052,0,2.103,0,3.153c-1.612,9.655-6.539,19.858-12.961,26.622
				c-1.81,1.912-5.035,5.678-8.583,4.205c-1.211-0.502-1.591-1.986-1.926-3.682c0-0.699,0-1.4,0-2.102
				c1.708-11.721,6.561-20.297,12.436-27.85c0.832-0.685,1.591-1.444,2.277-2.275
				C-1251.84,2942.444-1245.096,2942.08-1245.243,2947.269z"/>
			<path fill="#FED20B" d="M-1244.729,2822.537c0.797,3.291,2.496,8.51-1.576,9.284c-0.584,0-1.168,0-1.752,0
				c-2.306-0.205-3.291-1.73-4.729-2.803c-0.802-0.949-1.678-1.824-2.626-2.627c-7.131-6.568-15.261-22.085-8.408-35.032
				c3.576,0.525,5.677,3.832,7.706,6.656C-1251.217,2804.846-1247.093,2812.757-1244.729,2822.537z"/>
			<path fill="#FED20B" d="M-1268.639,2852.335c0.737,3.393-1.489,5.547-4.379,5.78c-5.415,0.438-11.728-3.248-15.414-5.43
				c-4.707-2.787-8.641-5.707-12.085-8.757c-0.627-0.773-1.328-1.474-2.103-2.102c-1.941-2.795-5.35-5.042-4.729-9.809
				c4.312-0.781,8.436,0.927,12.085,2.277c7.102,2.62,13.517,5.772,19.618,10.158
				C-1272.887,2846.431-1269.376,2848.919-1268.639,2852.335z"/>
			<path fill="#FED20B" d="M-1276.596,2923.273c0.562,2.788-1.962,5.86-3.503,7.531c-3.503,3.794-8.123,6.683-12.787,8.932
				c-2.772,1.342-12.457,4.417-13.136-0.524c-0.401-2.891,2.146-4.028,3.153-5.955c0.658-0.512,1.241-1.095,1.751-1.751
				c3.16-2.534,6.211-5.102,10.334-7.356C-1288.828,2923.083-1277.72,2917.676-1276.596,2923.273z"/>
			<path fill="#FED20B" d="M-1281.325,2885.439c0.38,6.509-11.027,7.371-17.165,7.881c-2.103,0-4.205,0-6.306,0
				c-7.816-0.824-15.983-1.3-19.092-6.831c0-0.408,0-0.816,0-1.226c2.153-5.846,9.437-6.562,16.64-7.357
				c0.709-0.109,1.862,0.227,2.277-0.176c0.875,0,1.751,0,2.627,0c0.474,0.402,1.686,0.066,2.451,0.176
				c4.065,0.344,7.657,0.561,11.385,1.751C-1285.704,2880.55-1281.514,2882.25-1281.325,2885.439z"/>
		</g>
		<g>
			<g>
				<path fill="#FED20B" d="M-1199.798,2883.831c1.593-0.094,2.741-0.407,4.319,0.299c0.734,0.329,1.477,0.329,2.261,0.251
					c1.702-0.167,2.929-1.154,4.25-2.125c0.534-0.393-0.472-0.437-0.653-0.419c-0.661,0.063-1.352,0.268-1.891,0.663
					c-0.663,0.487-0.849,0.891-1.822,0.455c-0.462-0.207-0.947-0.453-1.459-0.492c-1.28-0.098-2.498,0.212-3.769,0.286
					C-1199.271,2882.79-1201.656,2883.94-1199.798,2883.831L-1199.798,2883.831z"/>
			</g>
		</g>
		<g>
			<g>
				<path fill="#FED20B" d="M-1193.93,2884.215c0.891,1.133,2.161,1.887,3.624,1.816c0.608-0.028,1.424-0.25,1.888-0.667
					c0.486-0.437-0.432-0.45-0.66-0.438c0.386-0.019-0.091-0.059-0.208-0.105c-0.245-0.096-0.474-0.235-0.696-0.374
					c-0.414-0.261-0.825-0.599-1.129-0.987c-0.303-0.385-1.137-0.145-1.522-0.042
					C-1192.738,2883.445-1194.167,2883.914-1193.93,2884.215L-1193.93,2884.215z"/>
			</g>
		</g>
	</g>
</g>
<text transform="matrix(1 0 0 1 -1103.8896 2879.457)" fill="#F27900" font-family="'MyriadPro-Bold'" font-size="72">sun</text>
<text transform="matrix(1 0 0 1 -988.4756 2878.957)" fill="#FED20B" font-family="'MyriadPro-Regular'" font-size="72">py</text>
<text transform="matrix(1 0 0 1 -988.4756 2879.957)" fill="none" stroke="#444444" stroke-width="1.5" font-family="'MyriadPro-Regular'" font-size="72">py</text>
<g>
	<rect x="-1114.045" y="2895.934" fill="none" width="212.394" height="43.733"/>
	<text transform="matrix(1 0 0 1 -1097.7749 2930.0132)" fill="#444444" font-family="'MyriadPro-Regular'" font-size="48">powered</text>
</g>
</svg>
