<?xml version="1.0" encoding="utf-8"?>
<!-- Generator: Adobe Illustrator 14.0.0, SVG Export Plug-In . SVG Version: 6.00 Build 43363)  -->
<!DOCTYPE svg PUBLIC "-//W3C//DTD SVG 1.1//EN" "http://www.w3.org/Graphics/SVG/1.1/DTD/svg11.dtd">
<svg version="1.1" id="Layer_1" xmlns="http://www.w3.org/2000/svg" xmlns:xlink="http://www.w3.org/1999/xlink" x="0px" y="0px"
	 width="800px" height="380px" viewBox="0 0 800 380" enable-background="new 0 0 800 380" xml:space="preserve">
<g>
	<g id="Layer_1_1_">
		<g>
			<g>
				<defs>
					<path id="SVGID_1_" d="M277.986,179.443c2.015-8.644,1.957-17.34,0.612-25.329l-2.983-10.053
						c-3.938-9.299-11.877-17.529-23.499-24.772l-7.355-4.639c-1.199-0.693-2.4-1.387-3.6-2.079
						c-1.254,0.046-2.94-1.591-4.358-2.191c-5.773-3.034-11.252-5.118-16.517-6.411l-8.914-1.485
						c-10.284-0.884-19.85,1.149-29.343,4.776l-11.288,5.016c-8.389,4.211-32.549,23.067-32.549,23.067
						c-3.848,3.72-15.299,17.025-22.761,31.602c-6.897,13.477-9.981,28.284-10.077,31.817c0,0,1.408,16.131,2.035,18.76
						c0.582,1.522,4.657,13.972,7.165,18.393l5.465,8.17c3.405,4.364,7.517,8.542,12.449,12.5l6.188,4.557
						c2.748,1.853,18.993,10.03,22.639,11.39l11.208,3.479c14.809,3.637,28.537,3.229,41.563,0.193
						c1.52-0.583,3.087-1.003,4.695-1.258c2.806-1.059,19.582-6.918,19.582-6.918c7.696-3.037,15.154-6.973,21.835-13.801
						c0.622-1.074,1.242-2.15,1.865-3.224c6.228-9.965-7.122-17.679-16.959-18.733c-8.375-0.896-14.823,3.328-22.447,6.213
						c-11.995,4.537-24.588,6.365-38.885,4.318c-20.862-2.988-40.359-16.215-45.018-34.29c-0.581-1.521-1-3.085-1.256-4.696
						c-1.637-8.996-1.432-18.484,4.088-29.395c0.926-2.553,3.266-6.602,5.018-8.678c11.351-16.705,26.953-23.977,41.987-27.999
						c15.081-4.033,32.364-4.725,50.669,4.479c0.752-0.323,1.944,1,2.872,1.327c0.495,0.287,0.992,0.571,1.489,0.86
						c0.745,0.64,2.488,1.013,2.583,1.825c5.014,2.224,4.974,5.797,6.384,8.983c0.513,1.262,0.863,2.565,1.048,3.913
						c3.862,11.703-3.084,25.937-13.387,34.606c-10.106,8.492-22.141,16.175-34.445,11.519c-0.826,0.072-3.119-1.255-3.471-2.008
						c-8.14-6.208-10.95-13.841-9.016-22.744c7.226,2.329,8.187,11.872,15.808,14.431c6.141,2.062,11.718-1.938,16.274-8.127
						c0.622-1.074,1.243-2.148,1.863-3.223c6.442-12.554,1.373-18.64-8.665-26.787c-1.57-0.907-3.143-1.816-4.711-2.723
						c-20.205-7.087-35.461-8.354-48,13.221c-1.098,1.9-2.199,3.802-3.297,5.704c-9.149,13.635-2.586,23.74,4.277,33.234
						c4.287,5.938,9.482,13.449,17.14,17.847c15.714,9.016,33.077,4.823,45.36,1.077c7.91-2.413,16.124-5.746,23.611-10.657
						l7.397-5.644c2.703-2.395,5.245-5.057,7.549-8.056c3.101-4.04,5.471-8.263,7.256-12.563L277.986,179.443z"/>
				</defs>
				<clipPath id="SVGID_2_">
					<use xlink:href="#SVGID_1_"  overflow="visible"/>
				</clipPath>
				<rect x="101.801" y="99.779" clip-path="url(#SVGID_2_)" fill="#FED20B" width="181.785" height="182.194"/>
			</g>
		</g>
		<g>
			<g>
				<defs>
					<path id="SVGID_3_" d="M277.986,179.443c2.015-8.644,1.957-17.34,0.612-25.329l-2.983-10.053
						c-3.938-9.299-11.877-17.529-23.499-24.772l-7.355-4.639c-1.199-0.693-2.4-1.387-3.6-2.079
						c-1.254,0.046-2.94-1.591-4.358-2.191c-5.773-3.034-11.252-5.118-16.517-6.411l-8.914-1.485
						c-10.284-0.884-19.85,1.149-29.343,4.776l-11.288,5.016c-8.389,4.211-32.549,23.067-32.549,23.067
						c-3.848,3.72-15.299,17.025-22.761,31.602c-6.897,13.477-9.981,28.284-10.077,31.817c0,0,1.408,16.131,2.035,18.76
						c0.582,1.522,4.657,13.972,7.165,18.393l5.465,8.17c3.405,4.364,7.517,8.542,12.449,12.5l6.188,4.557
						c2.748,1.853,18.993,10.03,22.639,11.39l11.208,3.479c14.809,3.637,28.537,3.229,41.563,0.193
						c1.52-0.583,3.087-1.003,4.695-1.258c2.806-1.059,19.582-6.918,19.582-6.918c7.696-3.037,15.154-6.973,21.835-13.801
						c0.622-1.074,1.242-2.15,1.865-3.224c6.228-9.965-7.122-17.679-16.959-18.733c-8.375-0.896-14.823,3.328-22.447,6.213
						c-11.995,4.537-24.588,6.365-38.885,4.318c-20.862-2.988-40.359-16.215-45.018-34.29c-0.581-1.521-1-3.085-1.256-4.696
						c-1.637-8.996-1.432-18.484,4.088-29.395c0.926-2.553,3.266-6.602,5.018-8.678c11.351-16.705,26.953-23.977,41.987-27.999
						c15.081-4.033,32.364-4.725,50.669,4.479c0.752-0.323,1.944,1,2.872,1.327c0.495,0.287,0.992,0.571,1.489,0.86
						c0.745,0.64,2.488,1.013,2.583,1.825c5.014,2.224,4.974,5.797,6.384,8.983c0.513,1.262,0.863,2.565,1.048,3.913
						c3.862,11.703-3.084,25.937-13.387,34.606c-10.106,8.492-22.141,16.175-34.445,11.519c-0.826,0.072-3.119-1.255-3.471-2.008
						c-8.14-6.208-10.95-13.841-9.016-22.744c7.226,2.329,8.187,11.872,15.808,14.431c6.141,2.062,11.718-1.938,16.274-8.127
						c0.622-1.074,1.243-2.148,1.863-3.223c6.442-12.554,1.373-18.64-8.665-26.787c-1.57-0.907-3.143-1.816-4.711-2.723
						c-20.205-7.087-35.461-8.354-48,13.221c-1.098,1.9-2.199,3.802-3.297,5.704c-9.149,13.635-2.586,23.74,4.277,33.234
						c4.287,5.938,9.482,13.449,17.14,17.847c15.714,9.016,33.077,4.823,45.36,1.077c7.91-2.413,16.124-5.746,23.611-10.657
						l7.397-5.644c2.703-2.395,5.245-5.057,7.549-8.056c3.101-4.04,5.471-8.263,7.256-12.563L277.986,179.443z"/>
				</defs>
				<clipPath id="SVGID_4_">
					<use xlink:href="#SVGID_3_"  overflow="visible"/>
				</clipPath>
				<g clip-path="url(#SVGID_4_)">
					<g>
						<path fill="#F27900" d="M180.237,101.749c-5.385,2.056-10.758,4.385-16.152,6.927c-1.533,0.723-3.071,1.529-4.606,2.3
							l32.899,25.269L180.237,101.749z"/>
						<path fill="#F27900" d="M117.297,159.044c-3.176,5.148-6.011,10.44-8.387,15.805l32.655-0.111L117.297,159.044z"/>
						<path fill="#F27900" d="M111.667,231.123c3.378,5.956,7.247,11.779,11.676,17.457l19.869-32.473L111.667,231.123z"/>
						<path fill="#F27900" d="M201.426,281.163c7.452-0.8,14.575-1.97,21.369-3.511l-16.402-34.244L201.426,281.163z"/>
						<path fill="#F27900" d="M251.172,223.734c4.926-3.231,9.682-6.834,14.197-10.836l-25.536-18.325L251.172,223.734z"/>
						<path fill="#F27900" d="M278.513,151.367c-0.075-0.446-0.134-0.899-0.213-1.343c-0.869-2.14-1.461-4.355-1.776-6.644
							c-0.776-3.094-1.818-6.116-3.076-9.083l-26.802,13.961L278.513,151.367z"/>
						<path fill="#F27900" d="M252.601,118.961c-0.879-0.548-1.735-1.104-2.634-1.648c-2.222-1.746-6.665-2.898-7.433-5.034
							c-2.117-1.225-4.235-2.448-6.355-3.673l-1.916,35.43L252.601,118.961z"/>
						<path fill="#F27900" d="M149.304,125.605c-4.836,3.92-9.482,7.982-13.829,12.157c-0.216,0.21-0.434,0.434-0.65,0.644
							l30.622,16.09L149.304,125.605z"/>
						<path fill="#F27900" d="M105.854,191.995c-0.158,5.817,0.159,11.53,0.898,17.157l28.073-12.727L105.854,191.995z"/>
						<path fill="#F27900" d="M143.211,265.186c6.07,3.429,12.466,6.703,19.233,9.815l8.936-36.086L143.211,265.186z"/>
						<path fill="#F27900" d="M253.172,169.983l25.051,16.444c2.242-5.399,3.978-10.862,5.255-16.339L253.172,169.983z"/>
						<path fill="#F27900" d="M225.043,104.988c-5.951-1.463-11.761-2.416-17.46-2.906l4.117,30.884L225.043,104.988z"/>
						<path fill="#F27900" d="M219.827,231.148c5.252-0.889,10.501-2.155,15.69-3.836l-14.524-24.439L219.827,231.148z"/>
						<path fill="#F27900" d="M168.795,215.863c4.832,4.951,10.057,9.621,15.685,13.921l15.372-33.556L168.795,215.863z"/>
					</g>
				</g>
			</g>
		</g>
	</g>
	<g id="Layer_2">
		<g>
			<path fill="#FED20B" d="M339.928,171.127c10.145-1.062,25.072-3.903,24.63,6.873c0,1.24,0,2.483,0,3.723
				c-0.726,7.078-8.161,7.973-14.604,9.737c-12.257,3.366-26.923,6.529-40.097,7.447c-0.955,0-1.909,0-2.863,0
				c-5.848-1.267-15.55-4.368-15.181-11.168c0.251-4.595,7.148-7.363,12.315-9.167C315.022,174.766,327.553,172.417,339.928,171.127
				z"/>
			<path fill="#FED20B" d="M350.953,269.948c3.307,3.832,0.669,14.978-4.009,16.036c-2.984,0.682-7.029-1.418-9.451-2.576
				c-14.144-6.729-25.168-13.032-38.664-21.48c-4.297-2.685-11.792-6.193-12.604-11.168c-0.955-5.836,3.104-11.123,8.307-11.742
				c5.668-0.681,13.126,2.123,17.471,4.295c5.144,2.578,9.404,5.635,13.173,8.308c9.643,6.837,17.566,12.004,25.203,17.755
				C350.666,269.59,350.727,269.686,350.953,269.948z"/>
			<path fill="#FED20B" d="M318.779,80.822c5.562-0.037,11.099,5.251,10.312,11.17c-0.441,3.305-4.369,6.563-7.447,9.451
				c-9.344,8.759-20.942,18.818-34.653,21.48c-1.146,0-2.292,0-3.438,0c-4.402-0.931-8.365-2.697-8.877-6.874
				c-0.632-5.121,5.429-9.703,8.02-12.028c7.172-6.444,14.941-10.967,23.197-16.325C309.556,85.31,314.054,80.846,318.779,80.822z"
				/>
			<path fill="#FED20B" d="M287.229,328.842c1.336,2.973,3.234,6.575,3.15,9.165c-0.167,5.05-5.644,9.738-11.169,9.45
				c-4.523-0.238-5.954-3.125-9.165-5.727c-1.026-1.267-2.172-2.409-3.438-3.438c-11.528-12.339-20.502-27.231-25.489-46.108
				c0-1.242,0-2.482,0-3.725c0.225-3.807,4.391-8.533,8.591-9.166c7.255-1.085,12.603,4.571,16.038,8.876
				C274.794,299.499,280.88,314.714,287.229,328.842z"/>
			<path fill="#FED20B" d="M222.79,18.316c6.861,1.349,10.312,6.11,9.738,14.892c-0.656,0.394-0.107,1.993-0.288,2.865
				c-1.049,13.258-2.839,33.115-8.019,44.392c-1.945,4.236-5.692,9.763-12.315,8.592c-5.466-0.966-7.326-6.777-7.731-13.46
				c0-2.769,0-5.537,0-8.306c0.131-8.807,1.682-20.191,4.01-28.64c2.338-8.46,4.773-17.518,12.026-20.334
				C221.072,18.316,221.931,18.316,222.79,18.316z"/>
			<path fill="#FED20B" d="M209.33,326.643c-0.658,0.681-0.11,2.565-0.287,3.725c-1.3,12.543-2.088,25.596-11.17,30.357
				c-0.858,0-1.717,0-2.578,0c-7.196-3.877-7.852-14.297-8.876-24.345c-0.191-1.526,0.381-3.817-0.288-4.868
				c0-0.764,0-1.527,0-2.291c0.669-1.433,0.096-4.104,0.288-6.014c0.381-6.624,0.656-12.398,2.004-18.902
				c0.967-4.68,2.746-13.01,7.447-13.463c6.133-0.597,9.63,7.959,11.167,13.463C209.032,311.416,209.246,318.503,209.33,326.643z"/>
			<path fill="#FED20B" d="M150.043,288.551c0,1.721,0,3.438,0,5.156c-2.637,15.785-10.692,32.47-21.193,43.529
				c-2.959,3.127-8.233,9.283-14.034,6.875c-1.98-0.821-2.602-3.248-3.15-6.018c0-1.144,0-2.289,0-3.437
				c2.792-19.164,10.728-33.187,20.334-45.537c1.361-1.119,2.601-2.361,3.723-3.72C139.256,280.662,150.283,280.066,150.043,288.551
				z"/>
			<path fill="#FED20B" d="M150.883,84.599c1.302,5.381,4.081,13.915-2.577,15.18c-0.956,0-1.91,0-2.865,0
				c-3.771-0.335-5.381-2.83-7.733-4.583c-1.312-1.552-2.744-2.983-4.295-4.296c-11.659-10.74-24.953-36.112-13.747-57.281
				c5.847,0.859,9.283,6.266,12.6,10.884C140.275,55.672,147.018,68.607,150.883,84.599z"/>
			<path fill="#FED20B" d="M111.788,133.322c1.205,5.548-2.435,9.07-7.16,9.451c-8.854,0.717-19.177-5.311-25.204-8.878
				c-7.697-4.558-14.128-9.331-19.761-14.32c-1.026-1.264-2.172-2.41-3.438-3.436c-3.174-4.571-8.748-8.246-7.732-16.039
				c7.052-1.277,13.794,1.516,19.762,3.723c11.611,4.284,22.101,9.44,32.078,16.611
				C104.842,123.668,110.583,127.736,111.788,133.322z"/>
			<path fill="#FED20B" d="M98.778,249.314c0.918,4.559-3.209,9.582-5.728,12.314c-5.728,6.204-13.282,10.928-20.908,14.604
				c-4.533,2.195-20.369,7.222-21.48-0.856c-0.655-4.728,3.509-6.587,5.156-9.737c1.075-0.838,2.029-1.791,2.864-2.863
				c5.167-4.144,10.155-8.342,16.897-12.029C78.777,249.004,96.94,240.162,98.778,249.314z"/>
			<path fill="#FED20B" d="M91.044,187.452c0.621,10.644-18.031,12.052-28.066,12.887c-3.438,0-6.875,0-10.311,0
				c-12.78-1.348-26.135-2.125-31.218-11.17c0-0.667,0-1.335,0-2.004c3.521-9.558,15.431-10.729,27.208-12.029
				c1.159-0.179,3.044,0.371,3.724-0.287c1.431,0,2.863,0,4.296,0c0.775,0.657,2.756,0.107,4.008,0.287
				c6.647,0.562,12.519,0.918,18.616,2.864C83.884,179.457,90.735,182.237,91.044,187.452z"/>
		</g>
		<g>
			<g>
				<path fill="#FED20B" d="M224.351,184.821c2.605-0.153,4.482-0.666,7.062,0.489c1.2,0.538,2.415,0.538,3.697,0.411
					c2.784-0.273,4.789-1.888,6.95-3.475c0.873-0.642-0.772-0.715-1.069-0.686c-1.081,0.103-2.21,0.437-3.091,1.083
					c-1.084,0.796-1.388,1.457-2.979,0.745c-0.756-0.339-1.55-0.741-2.387-0.805c-2.092-0.161-4.084,0.347-6.162,0.468
					C225.212,183.119,221.312,185,224.351,184.821L224.351,184.821z"/>
			</g>
		</g>
		<g>
			<g>
				<path fill="#FED20B" d="M233.945,185.45c1.457,1.853,3.534,3.085,5.925,2.971c0.995-0.047,2.328-0.408,3.088-1.091
					c0.794-0.714-0.706-0.736-1.079-0.717c0.632-0.03-0.148-0.097-0.34-0.172c-0.401-0.157-0.774-0.385-1.138-0.612
					c-0.678-0.427-1.349-0.979-1.846-1.614c-0.495-0.63-1.859-0.237-2.489-0.07C235.894,184.191,233.558,184.958,233.945,185.45
					L233.945,185.45z"/>
			</g>
		</g>
	</g>
</g>
<rect x="390" y="74.907" fill="none" width="380" height="123"/>
<text transform="matrix(1 0 0 1 390 174.3057)" fill="#F27900" font-family="'MyriadPro-Bold'" font-size="140">sun</text>
<text transform="matrix(1 0 0 1 614.418 174.3057)" fill="#FED20B" font-family="'MyriadPro-Regular'" font-size="140">py</text>
<text transform="matrix(1 0 0 1 614.418 174.3057)" fill="none" stroke="#444444" stroke-width="1.5" font-family="'MyriadPro-Regular'" font-size="140">py</text>
<rect x="391" y="219.611" fill="none" width="380" height="82.889"/>
<text transform="matrix(1 0 0 1 419.5781 245.1699)" fill="#444444" font-family="'MyriadPro-Regular'" font-size="36">A Community Python</text>
<text transform="matrix(1 0 0 1 404.5488 288.3711)" fill="#444444" font-family="'MyriadPro-Regular'" font-size="36">Library for Solar Physics</text>
</svg>
